<svg width="92" height="59" viewBox="0 0 92 59" fill="none" xmlns="http://www.w3.org/2000/svg">
<path d="M38.0971 20.2L30.2091 44H25.5171L19.6351 26.388L13.6511 44H8.92514L1.03714 20.2H5.62714L11.5431 38.288L17.6971 20.2H21.7771L27.7951 38.39L33.8811 20.2H38.0971Z" fill="#33356C"/>
<path d="M77.616 22.906V30.148H89.108V33.888H77.616V43H73.196V19.2H90.57V22.906H77.616Z" fill="#33356C"/>
<path d="M66.976 40.664V47H41.584V41.96L54.544 29.72C55.92 28.408 56.848 27.288 57.328 26.36C57.808 25.4 58.048 24.456 58.048 23.528C58.048 22.184 57.584 21.16 56.656 20.456C55.76 19.72 54.432 19.352 52.672 19.352C51.2 19.352 49.872 19.64 48.688 20.216C47.504 20.76 46.512 21.592 45.712 22.712L40.048 19.064C41.36 17.112 43.168 15.592 45.472 14.504C47.776 13.384 50.416 12.824 53.392 12.824C55.888 12.824 58.064 13.24 59.92 14.072C61.808 14.872 63.264 16.024 64.288 17.528C65.344 19 65.872 20.744 65.872 22.76C65.872 24.584 65.488 26.296 64.72 27.896C63.952 29.496 62.464 31.32 60.256 33.368L52.528 40.664H66.976Z" fill="#DD491B"/>
</svg>
