<svg width="275" height="59" viewBox="0 0 275 59" fill="none" xmlns="http://www.w3.org/2000/svg">
<path d="M32.94 22.776L25.848 42H21.528L16.56 28.752L11.52 42H7.2L0.144 22.776H4.392L9.468 36.96L14.76 22.776H18.54L23.724 37.032L28.944 22.776H32.94ZM46.942 22.56C49.366 22.56 51.31 23.268 52.774 24.684C54.238 26.1 54.97 28.2 54.97 30.984V42H50.47V31.56C50.47 29.88 50.074 28.62 49.282 27.78C48.49 26.916 47.362 26.484 45.898 26.484C44.242 26.484 42.934 26.988 41.974 27.996C41.014 28.98 40.534 30.408 40.534 32.28V42H36.034V15.288H40.534V25.008C41.278 24.216 42.19 23.616 43.27 23.208C44.374 22.776 45.598 22.56 46.942 22.56ZM78.9263 32.496C78.9263 32.808 78.9023 33.252 78.8543 33.828H63.7703C64.0343 35.244 64.7183 36.372 65.8223 37.212C66.9503 38.028 68.3423 38.436 69.9983 38.436C72.1103 38.436 73.8503 37.74 75.2183 36.348L77.6303 39.12C76.7663 40.152 75.6743 40.932 74.3543 41.46C73.0343 41.988 71.5463 42.252 69.8903 42.252C67.7783 42.252 65.9183 41.832 64.3103 40.992C62.7023 40.152 61.4543 38.988 60.5663 37.5C59.7023 35.988 59.2703 34.284 59.2703 32.388C59.2703 30.516 59.6903 28.836 60.5303 27.348C61.3943 25.836 62.5823 24.66 64.0943 23.82C65.6063 22.98 67.3103 22.56 69.2063 22.56C71.0783 22.56 72.7463 22.98 74.2103 23.82C75.6983 24.636 76.8503 25.8 77.6663 27.312C78.5063 28.8 78.9263 30.528 78.9263 32.496ZM69.2063 26.16C67.7663 26.16 66.5423 26.592 65.5343 27.456C64.5503 28.296 63.9503 29.424 63.7343 30.84H74.6423C74.4503 29.448 73.8623 28.32 72.8783 27.456C71.8943 26.592 70.6703 26.16 69.2063 26.16ZM87.5329 25.584C88.8289 23.568 91.1089 22.56 94.3729 22.56V26.844C93.9889 26.772 93.6409 26.736 93.3289 26.736C91.5769 26.736 90.2089 27.252 89.2249 28.284C88.2409 29.292 87.7489 30.756 87.7489 32.676V42H83.2489V22.776H87.5329V25.584ZM116.087 32.496C116.087 32.808 116.063 33.252 116.015 33.828H100.931C101.195 35.244 101.879 36.372 102.983 37.212C104.111 38.028 105.503 38.436 107.159 38.436C109.271 38.436 111.011 37.74 112.379 36.348L114.791 39.12C113.927 40.152 112.835 40.932 111.515 41.46C110.195 41.988 108.707 42.252 107.051 42.252C104.939 42.252 103.079 41.832 101.471 40.992C99.8625 40.152 98.6145 38.988 97.7265 37.5C96.8625 35.988 96.4305 34.284 96.4305 32.388C96.4305 30.516 96.8505 28.836 97.6905 27.348C98.5545 25.836 99.7425 24.66 101.255 23.82C102.767 22.98 104.471 22.56 106.367 22.56C108.239 22.56 109.907 22.98 111.371 23.82C112.859 24.636 114.011 25.8 114.827 27.312C115.667 28.8 116.087 30.528 116.087 32.496ZM106.367 26.16C104.927 26.16 103.703 26.592 102.695 27.456C101.711 28.296 101.111 29.424 100.895 30.84H111.803C111.611 29.448 111.023 28.32 110.039 27.456C109.055 26.592 107.831 26.16 106.367 26.16Z" fill="#33356C"/>
<path d="M157.764 18.672C155.868 18.672 154.92 19.704 154.92 21.768V22.92H160.212V26.52H155.064V42H150.564V26.52H147.396V22.92H150.564V21.696C150.564 19.632 151.164 18.012 152.364 16.836C153.564 15.636 155.256 15.036 157.44 15.036C159.168 15.036 160.524 15.384 161.508 16.08L160.248 19.464C159.48 18.936 158.652 18.672 157.764 18.672ZM170.234 22.56C173.066 22.56 175.226 23.244 176.714 24.612C178.226 25.956 178.982 27.996 178.982 30.732V42H174.734V39.66C174.182 40.5 173.39 41.148 172.358 41.604C171.35 42.036 170.126 42.252 168.686 42.252C167.246 42.252 165.986 42.012 164.906 41.532C163.826 41.028 162.986 40.344 162.386 39.48C161.81 38.592 161.522 37.596 161.522 36.492C161.522 34.764 162.158 33.384 163.43 32.352C164.726 31.296 166.754 30.768 169.514 30.768H174.482V30.48C174.482 29.136 174.074 28.104 173.258 27.384C172.466 26.664 171.278 26.304 169.694 26.304C168.614 26.304 167.546 26.472 166.49 26.808C165.458 27.144 164.582 27.612 163.862 28.212L162.098 24.936C163.106 24.168 164.318 23.58 165.734 23.172C167.15 22.764 168.65 22.56 170.234 22.56ZM169.622 38.976C170.75 38.976 171.746 38.724 172.61 38.22C173.498 37.692 174.122 36.948 174.482 35.988V33.756H169.838C167.246 33.756 165.95 34.608 165.95 36.312C165.95 37.128 166.274 37.776 166.922 38.256C167.57 38.736 168.47 38.976 169.622 38.976ZM193.752 42.252C191.76 42.252 189.972 41.832 188.388 40.992C186.804 40.152 185.568 38.988 184.68 37.5C183.792 35.988 183.348 34.284 183.348 32.388C183.348 30.492 183.792 28.8 184.68 27.312C185.568 25.824 186.792 24.66 188.352 23.82C189.936 22.98 191.736 22.56 193.752 22.56C195.648 22.56 197.304 22.944 198.72 23.712C200.16 24.48 201.24 25.584 201.96 27.024L198.504 29.04C197.952 28.152 197.256 27.492 196.416 27.06C195.6 26.604 194.7 26.376 193.716 26.376C192.036 26.376 190.644 26.928 189.54 28.032C188.436 29.112 187.884 30.564 187.884 32.388C187.884 34.212 188.424 35.676 189.504 36.78C190.608 37.86 192.012 38.4 193.716 38.4C194.7 38.4 195.6 38.184 196.416 37.752C197.256 37.296 197.952 36.624 198.504 35.736L201.96 37.752C201.216 39.192 200.124 40.308 198.684 41.1C197.268 41.868 195.624 42.252 193.752 42.252ZM217.653 40.956C217.125 41.388 216.477 41.712 215.709 41.928C214.965 42.144 214.173 42.252 213.333 42.252C211.221 42.252 209.589 41.7 208.437 40.596C207.285 39.492 206.709 37.884 206.709 35.772V26.52H203.541V22.92H206.709V18.528H211.209V22.92H216.357V26.52H211.209V35.664C211.209 36.6 211.437 37.32 211.893 37.824C212.349 38.304 213.009 38.544 213.873 38.544C214.881 38.544 215.721 38.28 216.393 37.752L217.653 40.956ZM229.362 42.252C227.418 42.252 225.666 41.832 224.106 40.992C222.546 40.152 221.322 38.988 220.434 37.5C219.57 35.988 219.138 34.284 219.138 32.388C219.138 30.492 219.57 28.8 220.434 27.312C221.322 25.824 222.546 24.66 224.106 23.82C225.666 22.98 227.418 22.56 229.362 22.56C231.33 22.56 233.094 22.98 234.654 23.82C236.214 24.66 237.426 25.824 238.29 27.312C239.178 28.8 239.622 30.492 239.622 32.388C239.622 34.284 239.178 35.988 238.29 37.5C237.426 38.988 236.214 40.152 234.654 40.992C233.094 41.832 231.33 42.252 229.362 42.252ZM229.362 38.4C231.018 38.4 232.386 37.848 233.466 36.744C234.546 35.64 235.086 34.188 235.086 32.388C235.086 30.588 234.546 29.136 233.466 28.032C232.386 26.928 231.018 26.376 229.362 26.376C227.706 26.376 226.338 26.928 225.258 28.032C224.202 29.136 223.674 30.588 223.674 32.388C223.674 34.188 224.202 35.64 225.258 36.744C226.338 37.848 227.706 38.4 229.362 38.4ZM248.209 25.584C249.505 23.568 251.785 22.56 255.049 22.56V26.844C254.665 26.772 254.317 26.736 254.005 26.736C252.253 26.736 250.885 27.252 249.901 28.284C248.917 29.292 248.425 30.756 248.425 32.676V42H243.925V22.776H248.209V25.584ZM264.876 42.252C263.316 42.252 261.792 42.048 260.304 41.64C258.816 41.232 257.628 40.716 256.74 40.092L258.468 36.672C259.332 37.248 260.364 37.716 261.564 38.076C262.788 38.412 263.988 38.58 265.164 38.58C267.852 38.58 269.196 37.872 269.196 36.456C269.196 35.784 268.848 35.316 268.152 35.052C267.48 34.788 266.388 34.536 264.876 34.296C263.292 34.056 261.996 33.78 260.988 33.468C260.004 33.156 259.14 32.616 258.396 31.848C257.676 31.056 257.316 29.964 257.316 28.572C257.316 26.748 258.072 25.296 259.584 24.216C261.12 23.112 263.184 22.56 265.776 22.56C267.096 22.56 268.416 22.716 269.736 23.028C271.056 23.316 272.136 23.712 272.976 24.216L271.248 27.636C269.616 26.676 267.78 26.196 265.74 26.196C264.42 26.196 263.412 26.4 262.716 26.808C262.044 27.192 261.708 27.708 261.708 28.356C261.708 29.076 262.068 29.592 262.788 29.904C263.532 30.192 264.672 30.468 266.208 30.732C267.744 30.972 269.004 31.248 269.988 31.56C270.972 31.872 271.812 32.4 272.508 33.144C273.228 33.888 273.588 34.944 273.588 36.312C273.588 38.112 272.808 39.552 271.248 40.632C269.688 41.712 267.564 42.252 264.876 42.252Z" fill="#33356C"/>
<path d="M144.976 40.664V47H119.584V41.96L132.544 29.72C133.92 28.408 134.848 27.288 135.328 26.36C135.808 25.4 136.048 24.456 136.048 23.528C136.048 22.184 135.584 21.16 134.656 20.456C133.76 19.72 132.432 19.352 130.672 19.352C129.2 19.352 127.872 19.64 126.688 20.216C125.504 20.76 124.512 21.592 123.712 22.712L118.048 19.064C119.36 17.112 121.168 15.592 123.472 14.504C125.776 13.384 128.416 12.824 131.392 12.824C133.888 12.824 136.064 13.24 137.92 14.072C139.808 14.872 141.264 16.024 142.288 17.528C143.344 19 143.872 20.744 143.872 22.76C143.872 24.584 143.488 26.296 142.72 27.896C141.952 29.496 140.464 31.32 138.256 33.368L130.528 40.664H144.976Z" fill="#DD491B"/>
</svg>
