<?xml version="1.0" standalone="no"?>
<!DOCTYPE svg PUBLIC "-//W3C//DTD SVG 20010904//EN"
 "http://www.w3.org/TR/2001/REC-SVG-20010904/DTD/svg10.dtd">
<svg version="1.0" xmlns="http://www.w3.org/2000/svg"
 width="1472.000000pt" height="1472.000000pt" viewBox="0 0 1472.000000 1472.000000"
 preserveAspectRatio="xMidYMid meet">
<metadata>
Created by potrace 1.11, written by Peter Selinger 2001-2013
</metadata>
<g transform="translate(0.000000,1472.000000) scale(0.100000,-0.100000)"
fill="#000000" stroke="none">
<path d="M8285 10021 c-3 -2 -22 -5 -42 -7 -75 -5 -155 -13 -191 -19 -172 -29
-296 -58 -442 -103 -121 -38 -129 -41 -165 -58 -16 -7 -62 -27 -102 -44 -80
-34 -203 -97 -278 -143 -89 -54 -154 -97 -167 -110 -7 -7 -20 -18 -29 -23 -28
-16 -112 -87 -188 -159 -95 -91 -284 -320 -269 -329 2 -1 41 -27 88 -57 47
-30 92 -58 100 -62 19 -9 361 -232 377 -246 7 -6 16 -11 21 -11 4 0 17 -7 27
-15 35 -28 127 -85 135 -85 5 0 10 -3 12 -8 2 -4 34 -27 72 -50 l69 -43 31 38
c53 66 150 165 188 193 21 15 34 30 31 34 -3 3 -1 6 5 6 7 0 34 15 61 34 85
60 304 162 322 150 5 -3 9 -1 9 5 0 8 85 32 165 46 11 2 34 6 50 9 126 23 349
23 500 1 214 -32 377 -118 497 -264 15 -18 70 -116 73 -131 1 -3 7 -24 13 -47
20 -67 26 -122 25 -218 0 -96 -6 -137 -29 -225 -8 -30 -16 -59 -17 -65 -2 -5
-6 -16 -10 -22 -5 -7 -6 -13 -3 -13 2 0 -11 -33 -31 -72 -19 -40 -35 -74 -34
-76 1 -1 -3 -8 -9 -15 -5 -6 -36 -49 -68 -94 -31 -45 -79 -108 -107 -140 -49
-57 -351 -363 -358 -363 -2 0 -38 -33 -79 -72 -41 -40 -130 -125 -197 -188
-68 -63 -152 -142 -186 -175 -64 -61 -272 -257 -355 -335 -75 -70 -320 -302
-376 -355 -29 -27 -105 -99 -170 -160 -64 -60 -143 -135 -175 -165 -31 -30
-102 -98 -158 -150 -56 -52 -139 -131 -184 -175 l-83 -80 0 -402 c0 -221 2
-401 5 -401 3 0 8 0 11 -2 12 -4 80 -5 80 0 0 7 106 4 118 -4 6 -3 21 -2 34 3
14 5 31 5 38 1 8 -5 21 -5 30 0 9 5 22 5 30 0 8 -5 19 -5 26 1 7 6 21 6 38 -1
14 -5 26 -6 26 -2 0 4 12 7 28 6 15 -1 27 -3 27 -4 0 -1 19 -2 43 -3 23 -1 42
0 42 3 0 7 106 4 118 -4 6 -3 21 -2 34 3 14 5 31 5 38 1 8 -5 21 -5 30 0 9 5
22 5 30 0 8 -5 19 -5 26 1 7 6 21 6 38 -1 14 -5 26 -6 26 -2 0 4 12 7 28 6 15
-1 27 -3 27 -4 0 -1 19 -2 43 -3 23 -1 42 0 42 3 0 7 106 4 118 -4 6 -3 21 -2
34 3 14 5 31 5 38 1 8 -5 21 -5 30 0 9 5 22 5 30 0 8 -5 19 -5 26 1 7 6 21 6
38 -1 14 -5 26 -6 26 -2 0 4 12 7 28 6 15 -1 27 -3 27 -4 0 -1 19 -2 43 -3 23
-1 42 0 42 3 0 7 106 4 118 -4 6 -3 21 -2 34 3 14 5 31 5 38 1 8 -5 21 -5 30
0 9 5 22 5 30 0 8 -5 19 -5 26 1 7 6 21 6 38 -1 14 -5 26 -6 26 -2 0 4 12 7
28 6 15 -1 27 -3 27 -4 0 -1 19 -2 43 -3 23 -1 42 0 42 3 0 7 106 4 118 -4 6
-3 21 -2 34 3 14 5 31 5 38 1 8 -5 21 -5 30 0 9 5 22 5 30 0 8 -5 19 -5 26 1
7 6 21 6 38 -1 14 -5 26 -6 26 -2 0 4 12 7 28 6 15 -1 27 -3 27 -4 0 -1 19 -2
43 -3 23 -1 42 0 42 3 0 7 106 4 118 -4 6 -3 21 -2 34 3 14 5 31 5 38 1 8 -5
21 -5 30 0 9 5 22 5 30 0 8 -5 19 -5 26 1 7 6 21 6 38 -1 14 -5 26 -6 26 -2 0
4 12 7 28 6 15 -1 27 -3 27 -4 0 -1 19 -2 43 -3 23 -1 42 0 42 3 0 7 106 4
118 -4 6 -3 21 -2 34 3 14 5 31 5 38 1 8 -5 21 -5 30 0 9 5 22 5 30 0 8 -5 19
-5 26 1 7 6 21 6 38 -1 14 -5 26 -6 26 -2 0 4 12 7 28 6 15 -1 27 -3 27 -4 0
-1 19 -2 43 -3 23 -1 42 0 42 3 0 7 106 4 118 -4 6 -3 21 -2 34 3 14 5 31 5
38 1 8 -5 21 -5 30 0 9 5 22 5 30 0 8 -5 19 -5 26 1 7 6 21 6 38 -1 14 -5 26
-6 26 -2 0 4 12 7 28 6 15 -1 27 -3 27 -4 0 -1 19 -2 43 -3 23 -1 42 0 42 3 0
7 95 4 113 -3 10 -4 13 47 12 244 0 162 3 249 10 249 7 0 6 3 0 8 -14 9 -14
394 0 404 7 5 7 8 0 8 -6 0 -10 19 -10 43 1 23 0 47 -2 52 -2 7 -395 10 -1154
10 l-1151 -1 110 106 c247 235 336 320 338 320 2 0 29 26 62 58 32 31 121 116
197 187 76 72 162 154 193 183 30 28 59 52 63 52 5 0 9 7 9 15 0 8 4 15 8 15
8 0 163 143 289 267 29 29 53 51 53 49 0 -9 261 266 298 314 15 19 37 44 50
56 12 12 22 26 22 32 0 6 4 12 8 14 5 2 28 30 53 63 24 33 47 62 52 63 4 2 7
9 7 15 0 6 6 18 14 26 43 49 189 340 189 378 0 7 4 13 9 13 4 0 8 9 8 21 0 11
5 29 11 41 6 11 13 32 15 46 3 15 9 38 14 52 11 30 36 160 46 240 10 70 11
386 3 435 -5 28 -11 70 -14 95 -18 148 -110 370 -219 530 -52 76 -69 98 -141
179 -36 41 -54 58 -134 129 -14 13 -46 37 -71 55 -25 17 -46 34 -48 39 -2 4
-8 8 -12 8 -5 0 -29 13 -53 29 -81 55 -381 193 -447 206 -8 2 -40 10 -70 19
-30 9 -68 21 -85 26 -34 10 -232 48 -255 48 -8 0 -31 3 -50 6 -19 3 -60 9 -90
12 -64 7 -549 12 -555 5z"/>
<path d="M11716 9001 c-5 -8 -6 -3793 -1 -3802 2 -3 27 -3 55 1 27 4 50 3 50
-2 0 -5 8 -4 18 1 10 5 23 6 29 3 14 -9 77 -7 92 2 5 4 13 2 16 -4 5 -7 11 -8
19 -1 7 6 18 6 26 1 7 -4 23 -5 35 0 11 4 28 4 37 -1 11 -6 19 -5 23 1 4 7 12
7 25 0 12 -6 21 -7 25 0 3 5 15 6 29 0 12 -4 29 -5 36 0 7 5 23 5 34 2 26 -9
79 -7 94 2 6 3 13 2 17 -4 4 -7 12 -7 26 0 17 9 19 20 16 95 -1 47 2 85 6 85
5 0 5 5 1 11 -5 9 -9 325 -4 354 2 6 1 15 0 20 -5 24 -3 216 3 221 3 3 3 12 1
19 -9 23 -9 175 -1 175 5 0 5 5 2 11 -10 15 -11 149 -2 149 5 0 5 5 1 11 -8
14 -10 182 -1 195 3 6 2 16 -2 22 -4 7 -5 30 -2 50 l6 37 910 2 c501 1 913 2
916 2 3 1 6 135 6 299 l0 298 -913 0 c-502 0 -916 3 -920 6 -8 9 -10 236 -2
244 4 3 4 12 1 20 -8 23 -9 254 0 254 5 0 5 5 2 11 -10 15 -11 149 -2 149 5 0
5 5 1 11 -8 13 -9 343 -1 356 3 5 2 14 -1 21 -4 6 -6 28 -4 49 l4 38 1034 0
1034 0 0 77 c0 43 1 139 1 213 0 74 -1 173 -1 219 l0 84 -1385 0 c-762 0
-1387 -3 -1389 -7z"/>
<path d="M186 8847 c-17 -12 -13 -37 14 -102 5 -11 50 -146 100 -300 50 -154
94 -287 97 -295 3 -8 7 -19 8 -25 2 -5 24 -73 50 -149 26 -76 48 -146 51 -155
2 -9 38 -117 80 -241 42 -124 77 -231 77 -237 0 -7 5 -13 10 -13 6 0 8 -3 4
-6 -3 -3 10 -51 30 -107 19 -56 37 -113 40 -127 2 -13 8 -29 12 -35 7 -8 16
-36 26 -75 0 -3 23 -70 50 -150 27 -80 50 -147 50 -150 2 -11 27 -86 35 -105
9 -22 51 -154 54 -170 1 -5 5 -16 9 -23 5 -7 11 -24 13 -39 3 -15 9 -32 14
-38 4 -5 9 -13 9 -17 1 -5 1 -9 2 -10 0 -2 2 -11 5 -20 7 -30 11 -42 17 -58 8
-17 147 -440 151 -455 1 -5 7 -20 14 -31 6 -12 9 -24 6 -27 -3 -3 -1 -13 5
-24 9 -15 74 -208 76 -223 0 -3 3 -10 7 -16 4 -6 9 -21 12 -35 6 -27 48 -158
75 -234 10 -27 22 -63 27 -79 5 -16 11 -28 14 -27 3 1 17 -2 33 -8 15 -6 27
-7 27 -3 0 4 14 7 30 7 17 0 30 -3 30 -7 0 -4 12 -3 28 1 15 5 36 5 47 1 11
-4 30 -4 42 1 13 5 25 4 28 -1 4 -7 13 -7 24 0 12 6 22 5 29 -2 9 -9 12 -9 12
0 0 8 7 9 25 2 14 -5 25 -6 25 -2 0 6 53 7 70 2 7 -2 86 -1 133 3 21 1 41 -1
44 -6 3 -4 11 -3 18 3 9 8 15 8 20 0 4 -6 12 -7 24 0 12 6 21 6 28 -1 14 -14
48 19 58 56 4 17 9 35 11 40 1 6 48 143 104 305 56 162 103 302 105 310 2 8
19 59 38 113 19 54 36 101 37 105 1 4 7 18 12 32 5 14 11 32 13 40 2 8 18 56
35 105 17 50 34 99 37 110 2 11 7 27 11 35 3 8 6 17 7 20 1 3 4 12 7 20 3 8
16 44 28 80 12 36 24 72 27 80 4 8 7 17 8 20 4 18 78 239 85 255 5 11 16 45
25 75 9 30 20 64 25 75 4 11 13 36 20 55 7 19 16 44 20 55 4 11 33 99 65 195
31 96 61 183 66 194 6 10 12 26 14 35 2 9 24 77 50 151 25 74 47 140 49 145 4
20 29 90 34 99 3 5 38 -90 78 -210 40 -120 74 -219 74 -219 1 0 3 -7 5 -15 1
-8 12 -40 22 -70 45 -127 55 -156 57 -165 1 -5 24 -75 51 -155 27 -80 50 -148
51 -152 1 -5 3 -11 4 -15 1 -5 2 -11 1 -15 0 -5 3 -8 7 -8 4 0 8 -8 9 -17 0
-10 47 -153 102 -318 56 -165 104 -307 106 -315 2 -8 36 -109 75 -225 40 -115
73 -214 74 -220 2 -5 6 -18 10 -27 4 -9 9 -23 10 -32 1 -8 5 -19 9 -22 4 -4 7
-16 7 -26 0 -10 4 -26 10 -36 12 -22 50 -141 50 -159 0 -7 5 -13 11 -13 6 0 9
-6 6 -14 -3 -8 -3 -17 1 -21 4 -4 7 -10 8 -13 0 -4 3 -14 7 -22 12 -30 87
-265 88 -275 0 -14 42 -35 54 -27 14 9 37 9 58 -1 10 -4 17 -4 17 2 0 7 8 7
23 2 13 -5 30 -5 38 -1 8 5 21 5 29 0 7 -4 24 -4 37 1 14 5 23 5 23 -1 0 -5 7
-7 17 -3 21 8 81 8 90 0 3 -4 12 -2 19 4 8 7 14 7 19 -1 4 -7 12 -7 25 0 12 6
21 7 25 0 4 -6 15 -6 31 0 18 7 23 7 18 -2 -4 -7 -3 -8 4 -4 16 10 93 13 98 4
3 -4 16 -3 29 2 14 5 25 6 25 2 0 -5 19 -6 42 -3 42 6 42 7 65 71 12 36 23 65
23 65 1 0 3 8 5 17 2 9 28 92 59 185 31 92 61 184 67 203 7 19 16 46 22 60 6
14 11 30 12 35 2 6 13 42 26 80 13 39 24 72 24 75 1 3 4 12 8 20 11 29 51 155
53 170 2 8 7 23 13 35 10 21 89 258 96 287 3 15 69 211 83 248 3 8 6 18 7 23
2 4 4 9 5 12 1 3 3 8 4 13 12 44 29 99 34 107 4 6 7 15 8 20 1 6 14 46 29 90
15 44 29 87 31 95 6 24 135 413 144 435 11 25 61 175 65 195 2 8 18 56 35 105
17 50 33 97 35 105 2 8 16 49 30 90 14 41 28 82 30 90 3 14 130 398 142 430 3
8 7 20 8 25 3 12 113 342 122 365 3 8 8 25 10 37 l3 21 -333 1 -333 0 -12 -32
c-17 -42 -63 -185 -62 -192 0 -3 -6 -18 -14 -34 -8 -15 -17 -39 -20 -52 -2
-13 -24 -80 -48 -149 -25 -69 -46 -128 -47 -132 -3 -13 -8 -30 -51 -158 -24
-69 -43 -131 -43 -137 0 -7 -3 -13 -7 -13 -4 0 -7 -6 -8 -12 -1 -16 -7 -38
-15 -58 -3 -8 -20 -58 -37 -110 -17 -52 -34 -102 -37 -110 -8 -18 -6 -15 -22
-69 -7 -24 -16 -51 -21 -60 -4 -9 -24 -68 -45 -131 -20 -63 -39 -122 -41 -130
-3 -8 -5 -17 -5 -20 -1 -3 -5 -11 -11 -17 -6 -7 -8 -13 -5 -13 3 0 -4 -24 -14
-52 -11 -29 -22 -60 -24 -68 -2 -8 -20 -62 -40 -120 -20 -58 -38 -109 -39
-115 -2 -5 -6 -23 -11 -40 -4 -16 -13 -36 -19 -44 -6 -8 -10 -16 -8 -18 4 -4
-52 -182 -68 -218 -5 -11 -18 -51 -30 -90 -11 -38 -24 -79 -29 -90 -6 -11 -37
-103 -71 -205 -70 -214 -76 -226 -86 -184 -4 16 -11 35 -17 42 -5 6 -7 12 -4
12 3 0 -3 26 -14 58 -11 31 -22 62 -23 67 -2 6 -6 17 -9 25 -7 18 -30 92 -33
103 -1 4 -3 9 -4 12 -1 3 -3 8 -5 13 -1 4 -5 16 -9 27 -25 64 -38 100 -36 100
1 0 -1 7 -4 15 -3 8 -12 38 -20 65 -13 47 -40 125 -57 170 -13 35 -101 308
-103 319 -1 6 -4 16 -7 21 -3 6 -41 118 -84 250 -42 132 -83 254 -90 270 -7
17 -16 46 -20 65 -4 19 -11 40 -14 45 -6 8 -27 71 -37 110 -1 6 -38 117 -82
248 -44 130 -78 237 -75 237 3 0 1 6 -4 13 -6 6 -16 30 -22 52 -7 22 -16 49
-21 60 -9 22 -35 107 -35 115 0 3 -3 10 -6 15 -3 6 -30 85 -60 177 l-54 167
-327 -1 c-181 0 -328 -1 -328 -2 0 0 -43 -127 -96 -281 -52 -154 -97 -287 -99
-295 -2 -8 -9 -28 -16 -45 -6 -16 -13 -37 -15 -46 -2 -9 -9 -29 -15 -45 -7
-16 -13 -33 -15 -39 -1 -5 -10 -32 -19 -60 -10 -27 -18 -54 -19 -60 -1 -5 -8
-20 -14 -32 -7 -13 -10 -23 -7 -23 3 0 1 -9 -5 -21 -6 -11 -13 -28 -15 -37 -2
-9 -13 -44 -25 -77 -24 -69 -29 -82 -32 -93 -1 -4 -30 -89 -64 -189 -34 -100
-60 -184 -56 -187 3 -3 1 -6 -5 -6 -6 0 -16 -21 -23 -47 -18 -64 -17 -62 -20
-68 -1 -3 -3 -8 -4 -12 -1 -5 -4 -12 -7 -18 -3 -5 -23 -64 -45 -130 -21 -66
-43 -123 -49 -127 -5 -4 -7 -8 -2 -8 4 0 1 -16 -7 -35 -9 -20 -15 -39 -16 -43
-1 -16 -23 -78 -33 -89 -5 -7 -7 -13 -4 -13 2 0 -9 -37 -25 -82 -16 -46 -31
-90 -33 -98 -2 -8 -4 -15 -5 -15 -1 0 -3 -7 -5 -15 -1 -8 -19 -62 -40 -120
-20 -58 -38 -112 -40 -120 -2 -8 -4 -16 -5 -17 -2 -2 -3 -6 -5 -10 -1 -5 -5
-16 -9 -25 -4 -9 -8 -22 -10 -30 -1 -7 -19 -62 -41 -122 l-39 -109 -18 54
c-10 30 -20 61 -22 69 -2 8 -6 22 -9 30 -8 21 -79 233 -81 245 -2 8 -72 225
-101 313 -3 7 -5 14 -5 17 0 3 -7 22 -15 42 -8 20 -18 50 -21 67 -3 17 -8 33
-12 36 -4 3 -9 12 -10 20 -4 19 -61 199 -69 220 -3 8 -7 20 -8 25 -2 6 -22 66
-45 135 -23 69 -43 130 -44 135 -1 6 -4 15 -7 20 -6 9 -16 48 -20 70 0 6 -6
19 -12 30 -6 11 -13 31 -15 44 -2 13 -10 37 -18 52 -8 16 -14 30 -13 31 1 2
-9 35 -21 73 -12 39 -23 78 -25 87 -2 9 -8 25 -14 36 -5 10 -12 30 -15 43 -3
13 -26 85 -51 159 -26 74 -48 140 -49 145 -12 44 -40 132 -44 140 -4 6 -7 15
-8 21 -1 7 -11 38 -22 70 -12 33 -22 68 -24 79 -2 11 -9 26 -16 33 -7 8 -10
18 -6 23 3 6 1 15 -4 22 -5 7 -13 26 -17 42 -12 45 -12 45 -15 48 -1 1 -3 9
-5 17 -2 8 -17 56 -33 105 l-29 90 -336 1 c-185 1 -343 4 -351 7 -8 3 -21 0
-30 -6z"/>
</g>
</svg>
